<svg width="40" height="40" viewBox="0 0 40 40" fill="none" xmlns="http://www.w3.org/2000/svg">
<path d="M7.2 3.19995C4.992 3.19995 3.2 4.99195 3.2 7.19995V32.7999C3.2 35.0079 4.992 36.7999 7.2 36.7999H32.8C35.008 36.7999 36.8 35.0079 36.8 32.7999V7.19995C36.8 4.99195 35.008 3.19995 32.8 3.19995H7.2ZM9.6 14.4H14.9844C15.5684 14.4 18.7281 14.3602 18.7281 17.2562C18.7281 18.7922 17.6798 19.3117 17.2078 19.5437C17.9118 19.7677 19.2 20.416 19.2 22.4C19.2 25.4639 15.6876 25.5999 15.2156 25.5999H9.6V14.4ZM23.2 14.4H28.8V16H23.2V14.4ZM12 16.3437V18.9687H14.5766C14.9286 18.9687 16.0953 18.776 16.0953 17.6C16.0953 16.424 14.5757 16.3437 14.3437 16.3437H12ZM26.1844 16.8C29.3044 16.8 30.1517 19.2318 30.2797 19.8078C30.3997 20.3918 30.4 20.9039 30.4 21.6H24.0797C24.0797 22.2959 24.4485 23.864 26.3125 23.864C26.8085 23.864 27.1756 23.7444 27.5516 23.5124C27.9196 23.2805 28.0487 23.0554 28.1687 22.8234H30.2719C29.9039 23.7434 29.4081 24.4406 28.6641 24.9046C27.9201 25.3686 27.0561 25.5999 26.0641 25.5999C25.4401 25.5999 24.824 25.4804 24.2 25.2484C23.704 25.0164 23.2086 24.6721 22.8406 24.3281C22.4726 23.9761 22.2246 23.5119 21.9766 22.9359C21.7286 22.4719 21.6 21.7759 21.6 21.1999C21.6 20.624 21.8324 16.8 26.1844 16.8ZM26.1844 18.4234C24.3764 18.4234 24.0797 20.1598 24.0797 20.2718H28.0484C27.9204 19.6958 27.4004 18.4234 26.1844 18.4234ZM12 20.5687V23.6562H14.6812C14.9124 23.6562 16.5437 23.5847 16.5437 22.1687C16.5437 20.7607 15.262 20.5687 14.6812 20.5687H12Z" fill="black"/>
</svg>
