<svg width="40" height="40" viewBox="0 0 40 40" fill="none" xmlns="http://www.w3.org/2000/svg">
<path d="M5.83333 11.05C7.3 8.75004 9.3 6.83337 11.6833 5.50004C15.1333 6.63337 18.8833 8.83337 21.7667 12.1167C16.9333 13.8834 11.2667 13.9 5.83333 11.05ZM10.7167 33.9167C6.2 30.9334 3.21667 25.8167 3.21667 20C3.21667 17.9 3.6 15.8834 4.33333 14.0334C7.85 15.8667 11.45 16.6834 14.9333 16.6834C18.0667 16.6834 21.0833 16.0334 23.8333 14.9C24.45 15.9 24.9833 17 25.4167 18.1667C23.8333 18.7334 22.2667 19.4834 20.7833 20.4C15.6667 23.6 12.0667 28.4334 10.7167 33.9167ZM16.1833 3.75004C17.3667 3.48337 18.6167 3.33337 19.8833 3.33337C23.6833 3.33337 27.1667 4.60004 29.9667 6.73337C28.55 8.26671 26.8333 9.61671 24.9167 10.6834C22.45 7.61671 19.3167 5.31671 16.1833 3.75004ZM26.5667 23.15C27.3333 30.9167 23.9 35.7 23.4833 36.2667C23.4667 36.2667 23.4667 36.2834 23.4667 36.2834C22.3167 36.5334 21.1167 36.6667 19.8833 36.6667C17.7167 36.6667 15.6667 36.25 13.7667 35.5C14.75 30.5334 17.9167 26.1 22.5333 23.2334C23.75 22.4667 25.0167 21.85 26.3167 21.3834C26.4167 21.95 26.5 22.55 26.5667 23.15ZM36.5333 20.5667C36.3333 26.4667 33.0833 31.6 28.2833 34.4C29.3833 31.7334 30.3833 27.8 29.8833 22.8167C29.8 22.0167 29.6833 21.2334 29.5333 20.4834C31.9333 20.0167 34.3167 20.0334 36.5333 20.5667ZM28.65 17.2667C28.15 15.9 27.55 14.6167 26.8333 13.4334C28.95 12.2167 30.85 10.7167 32.4 9.00004C34.3833 11.25 35.7667 14.0334 36.3 17.1167C33.8333 16.6834 31.2333 16.7334 28.65 17.2667Z" fill="black"/>
</svg>
