<svg width="40" height="40" viewBox="0 0 40 40" fill="none" xmlns="http://www.w3.org/2000/svg">
<g clip-path="url(#clip0_14_194)">
<path d="M11.7168 0.139997C9.58879 0.240397 8.13559 0.579997 6.86519 1.0792C5.55039 1.5916 4.43599 2.2792 3.32719 3.392C2.21839 4.5048 1.53559 5.62 1.02679 6.9368C0.534391 8.21 0.200791 9.6644 0.106791 11.7936C0.0127914 13.9228 -0.00800858 14.6072 0.00239142 20.0384C0.0127914 25.4696 0.0367914 26.1504 0.139991 28.284C0.241591 30.4116 0.579991 31.8644 1.07919 33.1352C1.59239 34.45 2.27919 35.564 3.39239 36.6732C4.50559 37.7824 5.61999 38.4636 6.93999 38.9732C8.21199 39.4648 9.66679 39.8 11.7956 39.8932C13.9244 39.9864 14.6096 40.008 20.0392 39.9976C25.4688 39.9872 26.1524 39.9632 28.2856 39.862C30.4188 39.7608 31.864 39.42 33.1352 38.9232C34.45 38.4088 35.5648 37.7232 36.6732 36.6096C37.7816 35.496 38.464 34.38 38.9724 33.0624C39.4652 31.7904 39.8 30.3356 39.8924 28.2084C39.9856 26.0736 40.0076 25.392 39.9972 19.9616C39.9868 14.5312 39.9624 13.8504 39.8612 11.7176C39.76 9.5848 39.4212 8.1364 38.9224 6.8648C38.4084 5.55 37.7224 4.4368 36.6096 3.3268C35.4968 2.2168 34.38 1.5348 33.0628 1.0276C31.79 0.535197 30.336 0.199597 28.2072 0.107597C26.0784 0.0155973 25.3932 -0.00800271 19.9616 0.00239729C14.53 0.0127973 13.85 0.0359973 11.7168 0.139997ZM11.9504 36.2952C10.0004 36.2104 8.94159 35.8864 8.23599 35.6152C7.30159 35.2552 6.63599 34.82 5.93279 34.1236C5.22959 33.4272 4.79759 32.7592 4.43279 31.8268C4.15879 31.1212 3.82879 30.0636 3.73759 28.1136C3.63839 26.006 3.61759 25.3732 3.60599 20.0336C3.59439 14.694 3.61479 14.062 3.70719 11.9536C3.79039 10.0052 4.11639 8.9452 4.38719 8.24C4.74719 7.3044 5.18079 6.64 5.87879 5.9372C6.57679 5.2344 7.24279 4.8016 8.17599 4.4368C8.88079 4.1616 9.93839 3.8344 11.8876 3.7416C13.9968 3.6416 14.6288 3.6216 19.9676 3.61C25.3064 3.5984 25.94 3.6184 28.05 3.7112C29.9984 3.796 31.0588 4.1188 31.7632 4.3912C32.698 4.7512 33.3632 5.1836 34.066 5.8828C34.7688 6.582 35.202 7.2456 35.5668 8.1808C35.8424 8.8836 36.1696 9.9408 36.2616 11.8912C36.362 14.0004 36.3848 14.6328 36.3944 19.9712C36.404 25.3096 36.3852 25.9436 36.2928 28.0512C36.2076 30.0012 35.8844 31.0604 35.6128 31.7668C35.2528 32.7008 34.8188 33.3668 34.1204 34.0692C33.422 34.7716 32.7568 35.2044 31.8232 35.5692C31.1192 35.844 30.0604 36.172 28.1128 36.2648C26.0036 36.364 25.3716 36.3848 20.0308 36.3964C14.69 36.408 14.06 36.3864 11.9508 36.2952M28.2548 9.3108C28.2556 9.78551 28.3971 10.2493 28.6615 10.6436C28.926 11.0378 29.3013 11.3448 29.7402 11.5257C30.1791 11.7066 30.6618 11.7533 31.1272 11.6598C31.5926 11.5664 32.0199 11.337 32.355 11.0007C32.69 10.6644 32.9178 10.2364 33.0095 9.7706C33.1013 9.30484 33.0528 8.82233 32.8703 8.38411C32.6878 7.94588 32.3795 7.57162 31.9842 7.30866C31.589 7.0457 31.1247 6.90585 30.65 6.9068C30.0136 6.90807 29.4038 7.16204 28.9546 7.61285C28.5055 8.06367 28.2537 8.67442 28.2548 9.3108ZM9.73079 20.02C9.74199 25.692 14.3484 30.2796 20.0192 30.2688C25.69 30.258 30.2808 25.652 30.27 19.98C30.2592 14.308 25.6516 9.7192 19.98 9.7304C14.3084 9.7416 9.71999 14.3488 9.73079 20.02ZM13.3332 20.0128C13.3306 18.6942 13.719 17.4045 14.4494 16.3067C15.1798 15.2089 16.2193 14.3524 17.4365 13.8454C18.6537 13.3383 19.9939 13.2037 21.2877 13.4583C22.5814 13.713 23.7706 14.3456 24.7048 15.2761C25.639 16.2067 26.2763 17.3933 26.5361 18.686C26.7959 19.9788 26.6665 21.3195 26.1643 22.5387C25.6622 23.7579 24.8097 24.8008 23.7148 25.5355C22.6199 26.2702 21.3318 26.6638 20.0132 26.6664C19.1377 26.6682 18.2704 26.4976 17.4608 26.1642C16.6512 25.8308 15.9153 25.3412 15.2949 24.7233C14.6746 24.1054 14.1821 23.3714 13.8455 22.5632C13.5089 21.755 13.3348 20.8883 13.3332 20.0128Z" fill="black"/>
</g>
<defs>
<clipPath id="clip0_14_194">
<rect width="40" height="40" fill="white"/>
</clipPath>
</defs>
</svg>
