<svg width="40" height="40" viewBox="0 0 40 40" fill="none" xmlns="http://www.w3.org/2000/svg">
<path d="M32.8 3.19995H7.2C4.992 3.19995 3.2 4.99195 3.2 7.19995V32.7999C3.2 35.0079 4.992 36.7999 7.2 36.7999H32.8C35.008 36.7999 36.8 35.0079 36.8 32.7999V7.19995C36.8 4.99195 35.008 3.19995 32.8 3.19995ZM13.6 16V31.1999H8.8V16H13.6ZM8.8 11.576C8.8 10.456 9.76 9.59995 11.2 9.59995C12.64 9.59995 13.544 10.456 13.6 11.576C13.6 12.696 12.704 13.6 11.2 13.6C9.76 13.6 8.8 12.696 8.8 11.576ZM31.2 31.1999H26.4C26.4 31.1999 26.4 23.792 26.4 23.1999C26.4 21.6 25.6 19.9999 23.6 19.9679H23.536C21.6 19.9679 20.8 21.6159 20.8 23.1999C20.8 23.9279 20.8 31.1999 20.8 31.1999H16V16H20.8V18.0479C20.8 18.0479 22.344 16 25.448 16C28.624 16 31.2 18.184 31.2 22.608V31.1999Z" fill="black"/>
</svg>
