<svg width="0" height="0" class="hidden">
  <symbol xmlns="http://www.w3.org/2000/svg" viewBox="0 0 48 48" id="chakra-ui">
    <circle cx="24" cy="24" r="20" fill="#4db6ac"></circle>
    <path fill="#fff" d="M33.357,21.5h-8.882c-0.187,0-0.308-0.198-0.222-0.365l5.03-9.745	c0.13-0.253-0.195-0.492-0.398-0.293l-14.2,13.974c-0.159,0.157-0.048,0.428,0.175,0.428H24.2c0.202,0,0.32,0.227,0.205,0.393	l-7.126,10.265c-0.17,0.245,0.154,0.528,0.374,0.327l15.873-14.55C33.694,21.78,33.585,21.5,33.357,21.5z"></path>
  </symbol>
  <symbol xmlns="http://www.w3.org/2000/svg" viewBox="0 0 576 512" id="behance">
    <path d="M232 237.2c31.8-15.2 48.4-38.2 48.4-74 0-70.6-52.6-87.8-113.3-87.8H0v354.4h171.8c64.4 0 124.9-30.9 124.9-102.9 0-44.5-21.1-77.4-64.7-89.7zM77.9 135.9H151c28.1 0 53.4 7.9 53.4 40.5 0 30.1-19.7 42.2-47.5 42.2h-79v-82.7zm83.3 233.7H77.9V272h84.9c34.3 0 56 14.3 56 50.6 0 35.8-25.9 47-57.6 47zm358.5-240.7H376V94h143.7v34.9zM576 305.2c0-75.9-44.4-139.2-124.9-139.2-78.2 0-131.3 58.8-131.3 135.8 0 79.9 50.3 134.7 131.3 134.7 61.3 0 101-27.6 120.1-86.3H509c-6.7 21.9-34.3 33.5-55.7 33.5-41.3 0-63-24.2-63-65.3h185.1c.3-4.2 .6-8.7 .6-13.2zM390.4 274c2.3-33.7 24.7-54.8 58.5-54.8 35.4 0 53.2 20.8 56.2 54.8H390.4z"></path>
  </symbol>
  <symbol xmlns="http://www.w3.org/2000/svg" viewBox="0 -960 960 960" id="chevron-down">
    <path d="M480-345 240-585l56-56 184 184 184-184 56 56-240 240Z"></path>
  </symbol>
  <symbol xmlns="http://www.w3.org/2000/svg" viewBox="0 -960 960 960" id="chevron-left">
    <path d="M560-240 320-480l240-240 56 56-184 184 184 184-56 56Z"></path>
  </symbol>
  <symbol xmlns="http://www.w3.org/2000/svg" viewBox="0 -960 960 960" id="chevron-right">
    <path d="M504-480 320-664l56-56 240 240-240 240-56-56 184-184Z"></path>
  </symbol>
  <symbol xmlns="http://www.w3.org/2000/svg" viewBox="0 -960 960 960" id="close">
    <path d="m256-200-56-56 224-224-224-224 56-56 224 224 224-224 56 56-224 224 224 224-56 56-224-224-224 224Z"></path>
  </symbol>
  <symbol xmlns="http://www.w3.org/2000/svg" viewBox="0 -960 960 960" id="collapse-content">
    <path d="M440-440v240h-80v-160H200v-80h240Zm160-320v160h160v80H520v-240h80Z"></path>
  </symbol>
  <symbol xmlns="http://www.w3.org/2000/svg" viewBox="0 -960 960 960" id="css">
    <path d="M420-360q-17 0-28.5-11.5T380-400v-40h60v20h80v-40H420q-17 0-28.5-11.5T380-500v-60q0-17 11.5-28.5T420-600h120q17 0 28.5 11.5T580-560v40h-60v-20h-80v40h100q17 0 28.5 11.5T580-460v60q0 17-11.5 28.5T540-360H420Zm260 0q-17 0-28.5-11.5T640-400v-40h60v20h80v-40H680q-17 0-28.5-11.5T640-500v-60q0-17 11.5-28.5T680-600h120q17 0 28.5 11.5T840-560v40h-60v-20h-80v40h100q17 0 28.5 11.5T840-460v60q0 17-11.5 28.5T800-360H680Zm-520 0q-17 0-28.5-11.5T120-400v-160q0-17 11.5-28.5T160-600h120q17 0 28.5 11.5T320-560v40h-60v-20h-80v120h80v-20h60v40q0 17-11.5 28.5T280-360H160Z"></path>
  </symbol>
  <symbol xmlns="http://www.w3.org/2000/svg" viewBox="0 0 512 512" id="dribbble">
    <path d="M256 8C119.3 8 8 119.3 8 256s111.3 248 248 248 248-111.3 248-248S392.7 8 256 8zm164 114.4c29.5 36 47.4 82 47.8 132-7-1.5-77-15.7-147.5-6.8-5.8-14-11.2-26.4-18.6-41.6 78.3-32 113.8-77.5 118.3-83.5zM396.4 97.9c-3.8 5.4-35.7 48.3-111 76.5-34.7-63.8-73.2-116.2-79-124 67.2-16.2 138 1.3 190.1 47.5zm-230.5-33.3c5.6 7.7 43.4 60.1 78.5 122.5-99.1 26.3-186.4 25.9-195.8 25.8C62.4 147.2 106.7 92.6 165.9 64.6zM44.2 256.3c0-2.2 0-4.3 .1-6.5 9.3 .2 111.9 1.5 217.7-30.1 6.1 11.9 11.9 23.9 17.2 35.9-76.6 21.6-146.2 83.5-180.5 142.3C64.8 360.4 44.2 310.7 44.2 256.3zm81.8 167.1c22.1-45.2 82.2-103.6 167.6-132.8 29.7 77.3 42 142.1 45.2 160.6-68.1 29-150 21.1-212.8-27.9zm248.4 8.5c-2.2-12.9-13.4-74.9-41.2-151 66.4-10.6 124.7 6.8 131.9 9.1-9.4 58.9-43.3 109.8-90.8 142z"></path>
  </symbol>
  <symbol xmlns="http://www.w3.org/2000/svg" viewBox="0 -960 960 960" id="expand-content">
    <path d="M200-200v-240h80v160h160v80H200Zm480-320v-160H520v-80h240v240h-80Z"></path>
  </symbol>
  <symbol xmlns="http://www.w3.org/2000/svg" viewBox="0 0 48 48" id="figma">
    <path fill="#e64a19" d="M26,17h-8c-3.866,0-7-3.134-7-7v0c0-3.866,3.134-7,7-7h8V17z"></path>
    <path fill="#7c4dff" d="M25,31h-7c-3.866,0-7-3.134-7-7v0c0-3.866,3.134-7,7-7h7V31z"></path>
    <path fill="#66bb6a" d="M18,45L18,45c-3.866,0-7-3.134-7-7v0c0-3.866,3.134-7,7-7h7v7C25,41.866,21.866,45,18,45z"></path>
    <path fill="#ff7043" d="M32,17h-7V3h7c3.866,0,7,3.134,7,7v0C39,13.866,35.866,17,32,17z"></path>
    <circle cx="32" cy="24" r="7" fill="#29b6f6"></circle>
  </symbol>
  <symbol xmlns="http://www.w3.org/2000/svg" viewBox="0 -960 960 960" id="eye">
    <path d="M480-320q75 0 127.5-52.5T660-500q0-75-52.5-127.5T480-680q-75 0-127.5 52.5T300-500q0 75 52.5 127.5T480-320Zm0-72q-45 0-76.5-31.5T372-500q0-45 31.5-76.5T480-608q45 0 76.5 31.5T588-500q0 45-31.5 76.5T480-392Zm0 192q-146 0-266-81.5T40-500q54-137 174-218.5T480-800q146 0 266 81.5T920-500q-54 137-174 218.5T480-200Zm0-300Zm0 220q113 0 207.5-59.5T832-500q-50-101-144.5-160.5T480-720q-113 0-207.5 59.5T128-500q50 101 144.5 160.5T480-280Z"></path>
  </symbol>
  <symbol xmlns="http://www.w3.org/2000/svg" viewBox="0 0 496 512" id="github">
    <path d="M165.9 397.4c0 2-2.3 3.6-5.2 3.6-3.3 .3-5.6-1.3-5.6-3.6 0-2 2.3-3.6 5.2-3.6 3-.3 5.6 1.3 5.6 3.6zm-31.1-4.5c-.7 2 1.3 4.3 4.3 4.9 2.6 1 5.6 0 6.2-2s-1.3-4.3-4.3-5.2c-2.6-.7-5.5 .3-6.2 2.3zm44.2-1.7c-2.9 .7-4.9 2.6-4.6 4.9 .3 2 2.9 3.3 5.9 2.6 2.9-.7 4.9-2.6 4.6-4.6-.3-1.9-3-3.2-5.9-2.9zM244.8 8C106.1 8 0 113.3 0 252c0 110.9 69.8 205.8 169.5 239.2 12.8 2.3 17.3-5.6 17.3-12.1 0-6.2-.3-40.4-.3-61.4 0 0-70 15-84.7-29.8 0 0-11.4-29.1-27.8-36.6 0 0-22.9-15.7 1.6-15.4 0 0 24.9 2 38.6 25.8 21.9 38.6 58.6 27.5 72.9 20.9 2.3-16 8.8-27.1 16-33.7-55.9-6.2-112.3-14.3-112.3-110.5 0-27.5 7.6-41.3 23.6-58.9-2.6-6.5-11.1-33.3 2.6-67.9 20.9-6.5 69 27 69 27 20-5.6 41.5-8.5 62.8-8.5s42.8 2.9 62.8 8.5c0 0 48.1-33.6 69-27 13.7 34.7 5.2 61.4 2.6 67.9 16 17.7 25.8 31.5 25.8 58.9 0 96.5-58.9 104.2-114.8 110.5 9.2 7.9 17 22.9 17 46.4 0 33.7-.3 75.4-.3 83.6 0 6.5 4.6 14.4 17.3 12.1C428.2 457.8 496 362.9 496 252 496 113.3 383.5 8 244.8 8zM97.2 352.9c-1.3 1-1 3.3 .7 5.2 1.6 1.6 3.9 2.3 5.2 1 1.3-1 1-3.3-.7-5.2-1.6-1.6-3.9-2.3-5.2-1zm-10.8-8.1c-.7 1.3 .3 2.9 2.3 3.9 1.6 1 3.6 .7 4.3-.7 .7-1.3-.3-2.9-2.3-3.9-2-.6-3.6-.3-4.3 .7zm32.4 35.6c-1.6 1.3-1 4.3 1.3 6.2 2.3 2.3 5.2 2.6 6.5 1 1.3-1.3 .7-4.3-1.3-6.2-2.2-2.3-5.2-2.6-6.5-1zm-11.4-14.7c-1.6 1-1.6 3.6 0 5.9 1.6 2.3 4.3 3.3 5.6 2.3 1.6-1.3 1.6-3.9 0-6.2-1.4-2.3-4-3.3-5.6-2z"></path>
  </symbol>
  <symbol xmlns="http://www.w3.org/2000/svg" viewBox="0 0 48 48" id="google">
    <path fill="#FFC107" d="M43.611,20.083H42V20H24v8h11.303c-1.649,4.657-6.08,8-11.303,8c-6.627,0-12-5.373-12-12c0-6.627,5.373-12,12-12c3.059,0,5.842,1.154,7.961,3.039l5.657-5.657C34.046,6.053,29.268,4,24,4C12.955,4,4,12.955,4,24c0,11.045,8.955,20,20,20c11.045,0,20-8.955,20-20C44,22.659,43.862,21.35,43.611,20.083z"></path>
    <path fill="#FF3D00" d="M6.306,14.691l6.571,4.819C14.655,15.108,18.961,12,24,12c3.059,0,5.842,1.154,7.961,3.039l5.657-5.657C34.046,6.053,29.268,4,24,4C16.318,4,9.656,8.337,6.306,14.691z"></path>
    <path fill="#4CAF50" d="M24,44c5.166,0,9.86-1.977,13.409-5.192l-6.19-5.238C29.211,35.091,26.715,36,24,36c-5.202,0-9.619-3.317-11.283-7.946l-6.522,5.025C9.505,39.556,16.227,44,24,44z"></path>
    <path fill="#1976D2" d="M43.611,20.083H42V20H24v8h11.303c-0.792,2.237-2.231,4.166-4.087,5.571c0.001-0.001,0.002-0.001,0.003-0.002l6.19,5.238C36.971,39.205,44,34,44,24C44,22.659,43.862,21.35,43.611,20.083z"></path>
  </symbol>
  <symbol xmlns="http://www.w3.org/2000/svg" viewBox="0 0 640 512" id="graduation-cap">
    <path d="M320 32c-8.1 0-16.1 1.4-23.7 4.1L15.8 137.4C6.3 140.9 0 149.9 0 160s6.3 19.1 15.8 22.6l57.9 20.9C57.3 229.3 48 259.8 48 291.9v28.1c0 28.4-10.8 57.7-22.3 80.8c-6.5 13-13.9 25.8-22.5 37.6C0 442.7-.9 448.3 .9 453.4s6 8.9 11.2 10.2l64 16c4.2 1.1 8.7 .3 12.4-2s6.3-6.1 7.1-10.4c8.6-42.8 4.3-81.2-2.1-108.7C90.3 344.3 86 329.8 80 316.5V291.9c0-30.2 10.2-58.7 27.9-81.5c12.9-15.5 29.6-28 49.2-35.7l157-61.7c8.2-3.2 17.5 .8 20.7 9s-.8 17.5-9 20.7l-157 61.7c-12.4 4.9-23.3 12.4-32.2 21.6l159.6 57.6c7.6 2.7 15.6 4.1 23.7 4.1s16.1-1.4 23.7-4.1L624.2 182.6c9.5-3.4 15.8-12.5 15.8-22.6s-6.3-19.1-15.8-22.6L343.7 36.1C336.1 33.4 328.1 32 320 32zM128 408c0 35.3 86 72 192 72s192-36.7 192-72L496.7 262.6 354.5 314c-11.1 4-22.8 6-34.5 6s-23.5-2-34.5-6L143.3 262.6 128 408z"></path>
  </symbol>
  <symbol xmlns="http://www.w3.org/2000/svg" viewBox="0 -960 960 960" id="hamburger-menu">
    <path d="M120-240v-80h720v80H120Zm0-200v-80h720v80H120Zm0-200v-80h720v80H120Z"></path>
  </symbol>
  <symbol xmlns="http://www.w3.org/2000/svg" viewBox="0 0 448 512" id="instagram">
    <path d="M224.1 141c-63.6 0-114.9 51.3-114.9 114.9s51.3 114.9 114.9 114.9S339 319.5 339 255.9 287.7 141 224.1 141zm0 189.6c-41.1 0-74.7-33.5-74.7-74.7s33.5-74.7 74.7-74.7 74.7 33.5 74.7 74.7-33.6 74.7-74.7 74.7zm146.4-194.3c0 14.9-12 26.8-26.8 26.8-14.9 0-26.8-12-26.8-26.8s12-26.8 26.8-26.8 26.8 12 26.8 26.8zm76.1 27.2c-1.7-35.9-9.9-67.7-36.2-93.9-26.2-26.2-58-34.4-93.9-36.2-37-2.1-147.9-2.1-184.9 0-35.8 1.7-67.6 9.9-93.9 36.1s-34.4 58-36.2 93.9c-2.1 37-2.1 147.9 0 184.9 1.7 35.9 9.9 67.7 36.2 93.9s58 34.4 93.9 36.2c37 2.1 147.9 2.1 184.9 0 35.9-1.7 67.7-9.9 93.9-36.2 26.2-26.2 34.4-58 36.2-93.9 2.1-37 2.1-147.8 0-184.8zM398.8 388c-7.8 19.6-22.9 34.7-42.6 42.6-29.5 11.7-99.5 9-132.1 9s-102.7 2.6-132.1-9c-19.6-7.8-34.7-22.9-42.6-42.6-11.7-29.5-9-99.5-9-132.1s-2.6-102.7 9-132.1c7.8-19.6 22.9-34.7 42.6-42.6 29.5-11.7 99.5-9 132.1-9s102.7-2.6 132.1 9c19.6 7.8 34.7 22.9 42.6 42.6 11.7 29.5 9 99.5 9 132.1s2.7 102.7-9 132.1z"></path>
  </symbol>
  <symbol xmlns="http://www.w3.org/2000/svg" viewBox="0 -960 960 960" id="html">
    <path d="M0-360v-240h60v80h80v-80h60v240h-60v-100H60v100H0Zm310 0v-180h-70v-60h200v60h-70v180h-60Zm170 0v-200q0-17 11.5-28.5T520-600h180q17 0 28.5 11.5T740-560v200h-60v-180h-40v140h-60v-140h-40v180h-60Zm320 0v-240h60v180h100v60H800Z"></path>
  </symbol>
  <symbol xmlns="http://www.w3.org/2000/svg" viewBox="0 0 448 512" id="linkedin">
    <path d="M416 32H31.9C14.3 32 0 46.5 0 64.3v383.4C0 465.5 14.3 480 31.9 480H416c17.6 0 32-14.5 32-32.3V64.3c0-17.8-14.4-32.3-32-32.3zM135.4 416H69V202.2h66.5V416zm-33.2-243c-21.3 0-38.5-17.3-38.5-38.5S80.9 96 102.2 96c21.2 0 38.5 17.3 38.5 38.5 0 21.3-17.2 38.5-38.5 38.5zm282.1 243h-66.4V312c0-24.8-.5-56.7-34.5-56.7-34.6 0-39.9 27-39.9 54.9V416h-66.4V202.2h63.7v29.2h.9c8.9-16.8 30.6-34.5 62.9-34.5 67.2 0 79.7 44.3 79.7 101.9V416z"></path>
  </symbol>
  <symbol xmlns="http://www.w3.org/2000/svg" viewBox="0 0 512 512" id="mockup">
    <path d="M469.3 19.3l23.4 23.4c25 25 25 65.5 0 90.5l-56.4 56.4L322.3 75.7l56.4-56.4c25-25 65.5-25 90.5 0zM44.9 353.2L299.7 98.3 413.7 212.3 158.8 467.1c-6.7 6.7-15.1 11.6-24.2 14.2l-104 29.7c-8.4 2.4-17.4 .1-23.6-6.1s-8.5-15.2-6.1-23.6l29.7-104c2.6-9.2 7.5-17.5 14.2-24.2zM249.4 103.4L103.4 249.4 16 161.9c-18.7-18.7-18.7-49.1 0-67.9L94.1 16c18.7-18.7 49.1-18.7 67.9 0l19.8 19.8c-.3 .3-.7 .6-1 .9l-64 64c-6.2 6.2-6.2 16.4 0 22.6s16.4 6.2 22.6 0l64-64c.3-.3 .6-.7 .9-1l45.1 45.1zM408.6 262.6l45.1 45.1c-.3 .3-.7 .6-1 .9l-64 64c-6.2 6.2-6.2 16.4 0 22.6s16.4 6.2 22.6 0l64-64c.3-.3 .6-.7 .9-1L496 350.1c18.7 18.7 18.7 49.1 0 67.9L417.9 496c-18.7 18.7-49.1 18.7-67.9 0l-87.4-87.4L408.6 262.6z"></path>
  </symbol>
  <symbol xmlns="http://www.w3.org/2000/svg" viewBox="0 -960 960 960" id="javascript">
    <path d="M300-360q-25 0-42.5-17.5T240-420v-40h60v40h60v-180h60v180q0 25-17.5 42.5T360-360h-60Zm220 0q-17 0-28.5-11.5T480-400v-40h60v20h80v-40H520q-17 0-28.5-11.5T480-500v-60q0-17 11.5-28.5T520-600h120q17 0 28.5 11.5T680-560v40h-60v-20h-80v40h100q17 0 28.5 11.5T680-460v60q0 17-11.5 28.5T640-360H520Z"></path>
  </symbol>
  <symbol xmlns="http://www.w3.org/2000/svg" viewBox="0 0 48 48" id="mysql">
    <path fill="#00796b" d="M0.002,35.041h1.92v-7.085l2.667,6.057c0.329,0.755,0.779,1.022,1.662,1.022 s1.315-0.267,1.644-1.022l2.667-5.902v6.93h1.92v-7.258c0-0.697-0.277-1.035-0.849-1.209c-1.367-0.43-2.285-0.059-2.7,0.872 l-2.735,6.16l-2.649-6.16c-0.398-0.93-1.332-1.302-2.7-0.872C0.277,26.748,0,27.085,0,27.782v7.258H0.002z"></path>
    <path fill="#00796b" d="M13.441,29.281h1.92v4.055c-0.015,0.2,0.064,0.731,0.99,0.745c0.472,0.008,2.821,0,2.85,0v-4.8h1.92 c0.008,0,0,5.968,0,5.993c0.01,1.472-1.828,1.662-2.673,1.687h-5.006v-0.96c0.01,0,4.787,0.001,4.801,0 c1.088-0.115,0.959-0.714,0.959-0.896v-0.064H16.19c-1.67-0.015-2.735-0.751-2.747-1.59C13.441,33.373,13.479,29.317,13.441,29.281 z"></path>
    <path fill="#f57f17" d="M22.081,35.041h4.807c0.63,0,1.242-0.132,1.728-0.36c0.81-0.372,1.144-0.875,1.144-1.536v-1.368 c0-1.476-1.83-1.536-2.88-1.536h-1.92c-0.755,0-0.87-0.456-0.96-0.96v-0.96c0.09-0.384,0.258-0.9,0.923-0.96 c0.773,0,4.836,0,4.836,0v-0.96h-4.566c-0.755,0-3.114,0.09-3.114,1.92v1.187c0,0.84,0.738,1.524,2.34,1.692 c0.18,0.012,0.36,0.024,0.539,0.024c0,0,1.866-0.036,1.92-0.024c1.08,0,0.96,0.84,0.96,0.96v0.96c0,0.132-0.03,0.96-0.971,0.96 c-0.072,0-4.789,0-4.789,0V35.041z"></path>
    <path fill="#f57f17" d="M40.32,33.08c0,1.159,0.655,1.809,2.392,1.939c0.162,0.011,0.325,0.021,0.488,0.021H48v-0.96h-4.435 c-0.991,0-1.325-0.416-1.325-1.011v-6.669h-1.92V33.08z"></path>
    <path fill="#f57f17" d="M30.704,33.121v-4.8c0-1.02,0.5-1.724,1.916-1.92h0.672h3.447h0.525 c1.416,0.196,2.08,0.899,2.08,1.92v4.782c0,0.827-0.215,1.271-0.916,1.559L39.916,36h-2.16l-1.07-0.96h-1.257l-2.136,0.012 c-0.309,0-0.635-0.043-0.993-0.141C31.226,34.618,30.704,34.054,30.704,33.121z M32.624,33.121c0.098,0.467,0.473,0.96,1.14,0.96 h1.864l-1.068-0.96h2.175l0.519,0.482c0,0,0.186-0.152,0.186-0.482c0-0.33-0.016-4.8-0.016-4.8c-0.098-0.434-0.538-0.96-1.188-0.96 h-2.471c-0.749,0-1.14,0.548-1.14,1.058L32.624,33.121L32.624,33.121z"></path>
    <path fill="#00796b" d="M46.199,25.389c-1.031-0.028-1.818,0.068-2.491,0.351c-0.191,0.081-0.496,0.083-0.528,0.323 c0.105,0.11,0.121,0.275,0.205,0.41c0.16,0.26,0.432,0.609,0.674,0.791c0.265,0.2,0.538,0.414,0.821,0.587 c0.504,0.307,1.067,0.483,1.553,0.791c0.286,0.181,0.57,0.411,0.85,0.615c0.138,0.102,0.23,0.259,0.41,0.323 c0-0.01,0-0.019,0-0.029c-0.094-0.12-0.119-0.285-0.205-0.411c-0.127-0.127-0.254-0.254-0.381-0.381 c-0.372-0.494-0.846-0.929-1.348-1.289c-0.401-0.288-1.298-0.677-1.466-1.143c-0.01-0.01-0.019-0.019-0.03-0.03 c0.284-0.032,0.617-0.135,0.879-0.205c0.441-0.118,0.834-0.087,1.289-0.205c0.205-0.059,0.41-0.117,0.615-0.176 c0-0.039,0-0.078,0-0.117c-0.23-0.236-0.395-0.548-0.645-0.762c-0.657-0.559-1.373-1.117-2.11-1.583 c-0.409-0.258-0.915-0.426-1.348-0.645c-0.146-0.074-0.402-0.112-0.498-0.234c-0.228-0.29-0.351-0.659-0.527-0.996 c-0.368-0.708-0.73-1.482-1.055-2.227c-0.223-0.508-0.368-1.01-0.645-1.466c-1.331-2.188-2.764-3.509-4.982-4.807 c-0.472-0.276-1.041-0.385-1.642-0.528c-0.323-0.019-0.645-0.039-0.968-0.059c-0.197-0.083-0.401-0.323-0.587-0.44 c-0.735-0.465-2.621-1.475-3.165-0.147c-0.344,0.838,0.514,1.656,0.821,2.081c0.215,0.298,0.491,0.632,0.645,0.968 c0.101,0.22,0.119,0.441,0.205,0.674c0.213,0.574,0.55,1.228,0.826,1.759c0.139,0.269,0.293,0.551,0.469,0.791 c0.108,0.147,0.293,0.212,0.323,0.44c-0.181,0.253-0.191,0.646-0.293,0.968c-0.458,1.445-0.285,3.24,0.381,4.308 c0.204,0.328,0.686,1.032,1.348,0.762c0.579-0.236,0.45-0.967,0.615-1.612c0.037-0.146,0.014-0.253,0.088-0.351 c0,0.01,0,0.019,0,0.03c0.176,0.351,0.351,0.704,0.528,1.055c0.391,0.629,1.084,1.286,1.67,1.73 c0.304,0.23,0.544,0.628,0.938,0.762c0-0.01,0-0.019,0-0.03c-0.01,0-0.019,0-0.03,0c-0.076-0.119-0.196-0.168-0.293-0.264 c-0.229-0.225-0.485-0.504-0.674-0.762c-0.534-0.725-1.006-1.519-1.436-2.345c-0.205-0.395-0.384-0.829-0.557-1.231 c-0.067-0.155-0.066-0.389-0.205-0.469c-0.19,0.294-0.468,0.532-0.615,0.879c-0.234,0.555-0.265,1.233-0.351,1.934 c-0.052,0.018-0.029,0.006-0.059,0.029c-0.408-0.099-0.552-0.518-0.704-0.879c-0.384-0.912-0.455-2.38-0.117-3.429 c0.087-0.272,0.482-1.127,0.323-1.378c-0.076-0.251-0.328-0.396-0.468-0.587c-0.175-0.236-0.348-0.548-0.469-0.821 c-0.314-0.711-0.612-1.538-0.943-2.257c-0.158-0.344-0.425-0.691-0.645-0.996c-0.243-0.338-0.516-0.587-0.704-0.996 c-0.067-0.145-0.158-0.378-0.059-0.528c0.032-0.101,0.076-0.143,0.176-0.176c0.17-0.132,0.643,0.043,0.821,0.117 c0.47,0.195,0.862,0.381,1.26,0.645c0.191,0.127,0.384,0.372,0.615,0.44c0.088,0,0.176,0,0.264,0 c0.413,0.095,0.875,0.03,1.26,0.147c0.682,0.207,1.292,0.529,1.846,0.879c1.69,1.067,3.071,2.585,4.016,4.397 c0.152,0.292,0.218,0.57,0.351,0.879c0.27,0.624,0.611,1.266,0.879,1.876c0.268,0.609,0.53,1.223,0.909,1.73 c0.2,0.266,0.97,0.409,1.319,0.557c0.245,0.104,0.647,0.211,0.879,0.351c0.444,0.268,0.874,0.587,1.289,0.879 C45.528,24.803,46.167,25.124,46.199,25.389z"></path>
    <path fill="#00796b" d="M33.098,14.223c-0.215-0.004-0.367,0.023-0.528,0.059c0,0.01,0,0.019,0,0.03c0.01,0,0.019,0,0.03,0 c0.103,0.21,0.283,0.347,0.41,0.528c0.098,0.205,0.195,0.41,0.293,0.615c0.01-0.01,0.019-0.019,0.029-0.029 c0.181-0.128,0.265-0.332,0.264-0.645c-0.073-0.077-0.084-0.173-0.147-0.264C33.365,14.394,33.203,14.325,33.098,14.223z"></path>
  </symbol>
  <symbol xmlns="http://www.w3.org/2000/svg" viewBox="0 0 48 48" id="typescript">
    <rect width="36" height="36" x="6" y="6" fill="#1976d2"></rect>
    <polygon fill="#fff" points="27.49,22 14.227,22 14.227,25.264 18.984,25.264 18.984,40 22.753,40 22.753,25.264 27.49,25.264"></polygon>
    <path fill="#fff" d="M39.194,26.084c0,0-1.787-1.192-3.807-1.192s-2.747,0.96-2.747,1.986 c0,2.648,7.381,2.383,7.381,7.712c0,8.209-11.254,4.568-11.254,4.568V35.22c0,0,2.152,1.622,4.733,1.622s2.483-1.688,2.483-1.92 c0-2.449-7.315-2.449-7.315-7.878c0-7.381,10.658-4.469,10.658-4.469L39.194,26.084z"></path>
  </symbol>
  <symbol xmlns="http://www.w3.org/2000/svg" viewBox="0 -960 960 960" id="prototyping">
    <path d="M160-120v-170l527-526q12-12 27-18t30-6q16 0 30.5 6t25.5 18l56 56q12 11 18 25.5t6 30.5q0 15-6 30t-18 27L330-120H160Zm80-80h56l393-392-28-29-29-28-392 393v56Zm560-503-57-57 57 57Zm-139 82-29-28 57 57-28-29ZM560-120q74 0 137-37t63-103q0-36-19-62t-51-45l-59 59q23 10 36 22t13 26q0 23-36.5 41.5T560-200q-17 0-28.5 11.5T520-160q0 17 11.5 28.5T560-120ZM183-426l60-60q-20-8-31.5-16.5T200-520q0-12 18-24t76-37q88-38 117-69t29-70q0-55-44-87.5T280-840q-45 0-80.5 16T145-785q-11 13-9 29t15 26q13 11 29 9t27-13q14-14 31-20t42-6q41 0 60.5 12t19.5 28q0 14-17.5 25.5T262-654q-80 35-111 63.5T120-520q0 32 17 54.5t46 39.5Z"></path>
  </symbol>
  <symbol fill="none" xmlns="http://www.w3.org/2000/svg" viewBox="0 0 244 63" id="moshifylogo 1">
    <path fill-rule="evenodd" clip-rule="evenodd" d="M51.1595 34.65L28.2847 45.7334L37.3765 16.3567L51.1595 34.65Z" fill="#2584FF" stroke="#2584FF" stroke-width="10" stroke-linecap="round" stroke-linejoin="round"></path>
    <g>
      <path fill-rule="evenodd" clip-rule="evenodd" d="M43.2051 34.65L66.0799 45.7334L56.9881 16.3567L43.2051 34.65Z" fill="#FF3400"></path>
      <path fill-rule="evenodd" clip-rule="evenodd" d="M43.2051 34.65L66.0799 45.7334L56.9881 16.3567L43.2051 34.65Z" stroke="#FF3400" stroke-width="10" stroke-linecap="round" stroke-linejoin="round"></path>
    </g>
    <path d="M85.0227 17.7273H91.0909L97.5 33.3636H97.7727L104.182 17.7273H110.25V41H105.477V25.8523H105.284L99.2614 40.8864H96.0114L89.9886 25.7955H89.7955V41H85.0227V17.7273ZM122.099 41.3409C120.334 41.3409 118.808 40.9659 117.52 40.2159C116.24 39.4583 115.251 38.4053 114.554 37.0568C113.857 35.7008 113.509 34.1288 113.509 32.3409C113.509 30.5379 113.857 28.9621 114.554 27.6136C115.251 26.2576 116.24 25.2045 117.52 24.4545C118.808 23.697 120.334 23.3182 122.099 23.3182C123.865 23.3182 125.387 23.697 126.668 24.4545C127.955 25.2045 128.948 26.2576 129.645 27.6136C130.342 28.9621 130.69 30.5379 130.69 32.3409C130.69 34.1288 130.342 35.7008 129.645 37.0568C128.948 38.4053 127.955 39.4583 126.668 40.2159C125.387 40.9659 123.865 41.3409 122.099 41.3409ZM122.122 37.5909C122.925 37.5909 123.596 37.3636 124.134 36.9091C124.671 36.447 125.077 35.8182 125.349 35.0227C125.63 34.2273 125.77 33.322 125.77 32.3068C125.77 31.2917 125.63 30.3864 125.349 29.5909C125.077 28.7955 124.671 28.1667 124.134 27.7045C123.596 27.2424 122.925 27.0114 122.122 27.0114C121.312 27.0114 120.63 27.2424 120.077 27.7045C119.531 28.1667 119.118 28.7955 118.838 29.5909C118.565 30.3864 118.429 31.2917 118.429 32.3068C118.429 33.322 118.565 34.2273 118.838 35.0227C119.118 35.8182 119.531 36.447 120.077 36.9091C120.63 37.3636 121.312 37.5909 122.122 37.5909ZM148.361 28.5227L143.929 28.7955C143.853 28.4167 143.69 28.0758 143.44 27.7727C143.19 27.4621 142.861 27.2159 142.452 27.0341C142.05 26.8447 141.569 26.75 141.009 26.75C140.259 26.75 139.626 26.9091 139.111 27.2273C138.596 27.5379 138.338 27.9545 138.338 28.4773C138.338 28.8939 138.505 29.2462 138.838 29.5341C139.171 29.822 139.743 30.053 140.554 30.2273L143.713 30.8636C145.41 31.2121 146.675 31.7727 147.509 32.5455C148.342 33.3182 148.759 34.3333 148.759 35.5909C148.759 36.7348 148.421 37.7386 147.747 38.6023C147.08 39.4659 146.164 40.1402 144.997 40.625C143.838 41.1023 142.501 41.3409 140.986 41.3409C138.675 41.3409 136.834 40.8598 135.463 39.8977C134.099 38.928 133.3 37.6098 133.065 35.9432L137.827 35.6932C137.971 36.3977 138.319 36.9356 138.872 37.3068C139.425 37.6705 140.134 37.8523 140.997 37.8523C141.846 37.8523 142.527 37.6894 143.043 37.3636C143.565 37.0303 143.83 36.6023 143.838 36.0795C143.83 35.6402 143.645 35.2803 143.281 35C142.918 34.7121 142.357 34.4924 141.599 34.3409L138.577 33.7386C136.872 33.3977 135.603 32.8068 134.77 31.9659C133.944 31.125 133.531 30.053 133.531 28.75C133.531 27.6288 133.834 26.6629 134.44 25.8523C135.054 25.0417 135.914 24.4167 137.02 23.9773C138.134 23.5379 139.437 23.3182 140.929 23.3182C143.134 23.3182 144.868 23.7841 146.134 24.7159C147.406 25.6477 148.149 26.9167 148.361 28.5227ZM156.648 30.9091V41H151.807V17.7273H156.511V26.625H156.716C157.11 25.5947 157.746 24.7879 158.625 24.2045C159.504 23.6136 160.606 23.3182 161.932 23.3182C163.144 23.3182 164.201 23.5833 165.102 24.1136C166.011 24.6364 166.716 25.3902 167.216 26.375C167.723 27.3523 167.973 28.5227 167.966 29.8864V41H163.125V30.75C163.133 29.6742 162.86 28.8371 162.307 28.2386C161.761 27.6402 160.996 27.3409 160.011 27.3409C159.352 27.3409 158.769 27.4811 158.261 27.7614C157.761 28.0417 157.367 28.4508 157.08 28.9886C156.799 29.5189 156.655 30.1591 156.648 30.9091ZM171.776 41V23.5455H176.616V41H171.776ZM174.207 21.2955C173.488 21.2955 172.87 21.0568 172.355 20.5795C171.848 20.0947 171.594 19.5152 171.594 18.8409C171.594 18.1742 171.848 17.6023 172.355 17.125C172.87 16.6402 173.488 16.3977 174.207 16.3977C174.927 16.3977 175.541 16.6402 176.048 17.125C176.563 17.6023 176.821 18.1742 176.821 18.8409C176.821 19.5152 176.563 20.0947 176.048 20.5795C175.541 21.0568 174.927 21.2955 174.207 21.2955ZM189.881 23.5455V27.1818H179.108V23.5455H189.881ZM181.574 41V22.2841C181.574 21.0189 181.82 19.9697 182.312 19.1364C182.812 18.303 183.494 17.678 184.358 17.2614C185.222 16.8447 186.203 16.6364 187.301 16.6364C188.044 16.6364 188.722 16.6932 189.335 16.8068C189.956 16.9205 190.419 17.0227 190.722 17.1136L189.858 20.75C189.669 20.6894 189.434 20.6326 189.153 20.5795C188.881 20.5265 188.6 20.5 188.312 20.5C187.6 20.5 187.104 20.6667 186.824 21C186.544 21.3258 186.403 21.7841 186.403 22.375V41H181.574ZM195.827 47.5455C195.213 47.5455 194.637 47.4962 194.099 47.3977C193.569 47.3068 193.13 47.1894 192.781 47.0455L193.872 43.4318C194.44 43.6061 194.952 43.7008 195.406 43.7159C195.868 43.7311 196.266 43.625 196.599 43.3977C196.94 43.1705 197.217 42.7841 197.429 42.2386L197.713 41.5L191.452 23.5455H196.543L200.156 36.3636H200.338L203.986 23.5455H209.111L202.327 42.8864C202.001 43.8258 201.558 44.6439 200.997 45.3409C200.444 46.0455 199.743 46.5871 198.895 46.9659C198.046 47.3523 197.024 47.5455 195.827 47.5455Z" fill="white"></path>
  </symbol>
  <symbol xmlns="http://www.w3.org/2000/svg" viewBox="0 0 448 512" id="user-testing">
    <path d="M224 256A128 128 0 1 0 224 0a128 128 0 1 0 0 256zm-45.7 48C79.8 304 0 383.8 0 482.3C0 498.7 13.3 512 29.7 512H418.3c16.4 0 29.7-13.3 29.7-29.7C448 383.8 368.2 304 269.7 304H178.3z"></path>
  </symbol>
  <symbol xmlns="http://www.w3.org/2000/svg" viewBox="0 0 512 512" id="research">
    <path d="M416 208c0 45.9-14.9 88.3-40 122.7L502.6 457.4c12.5 12.5 12.5 32.8 0 45.3s-32.8 12.5-45.3 0L330.7 376c-34.4 25.2-76.8 40-122.7 40C93.1 416 0 322.9 0 208S93.1 0 208 0S416 93.1 416 208zM208 352a144 144 0 1 0 0-288 144 144 0 1 0 0 288z"></path>
  </symbol>
  <symbol xmlns="http://www.w3.org/2000/svg" viewBox="0 0 80 80" id="react">
    <path fill="#8bb7f0" d="M46.5,40c0,3.593-2.907,6.5-6.5,6.5s-6.5-2.907-6.5-6.5s2.907-6.5,6.5-6.5S46.5,36.407,46.5,40z"></path>
    <path fill="#4e7ab5" d="M40,47c-3.859,0-7-3.14-7-7s3.141-7,7-7s7,3.14,7,7S43.859,47,40,47z M40,34c-3.309,0-6,2.691-6,6 s2.691,6,6,6s6-2.691,6-6S43.309,34,40,34z"></path>
    <g>
      <path fill="#8bb7f0" d="M24.474,75.503c-1.711,0-3.269-0.392-4.632-1.164c-2.28-1.293-3.856-3.521-4.686-6.62 c-0.965-3.607-0.85-8.398,0.332-13.878C5.956,50.562,0.5,45.531,0.5,40c0-5.532,5.455-10.562,14.987-13.84 c-1.182-5.481-1.298-10.272-0.333-13.879c0.83-3.1,2.406-5.328,4.685-6.62c1.362-0.772,2.921-1.164,4.632-1.164 c4.388,0,9.891,2.73,15.531,7.698c5.64-4.963,11.141-7.691,15.524-7.691c1.711,0,3.269,0.392,4.632,1.164 c2.277,1.291,3.854,3.515,4.684,6.611c0.966,3.606,0.85,8.398-0.333,13.88C74.043,29.437,79.5,34.468,79.5,40 s-5.457,10.563-14.991,13.842c1.182,5.481,1.298,10.272,0.332,13.878c-0.83,3.097-2.405,5.321-4.68,6.612 c-1.364,0.772-2.923,1.164-4.633,1.164c-4.386,0-9.889-2.728-15.527-7.689C34.361,72.774,28.859,75.503,24.474,75.503z M19.337,55.006c-0.991,4.717-1.102,8.747-0.316,11.679c0.542,2.026,1.481,3.431,2.794,4.175c0.753,0.427,1.648,0.644,2.659,0.644 c3.394,0,7.862-2.282,12.621-6.437c-2.385-2.402-4.713-5.121-6.928-8.091C26.336,56.56,22.696,55.898,19.337,55.006z M42.906,65.065c4.758,4.151,9.227,6.431,12.621,6.432c1.011,0,1.906-0.217,2.661-0.644c1.309-0.742,2.246-2.144,2.787-4.167 c0.786-2.934,0.676-6.963-0.315-11.679c-3.362,0.892-7.003,1.554-10.833,1.97C47.613,59.947,45.288,62.665,42.906,65.065z M35.566,57.393c1.452,1.776,2.938,3.433,4.434,4.94c1.492-1.506,2.979-3.163,4.43-4.94C42.939,57.464,41.454,57.5,40,57.5 C38.545,57.5,37.059,57.464,35.566,57.393z M32.349,53.179C34.844,53.392,37.417,53.5,40,53.5c2.585,0,5.155-0.108,7.646-0.32 c1.486-2.084,2.903-4.268,4.214-6.495c1.268-2.155,2.461-4.404,3.547-6.686c-1.083-2.276-2.275-4.524-3.546-6.684 c-1.308-2.222-2.725-4.406-4.215-6.495C45.157,26.608,42.587,26.5,40,26.5c-2.588,0-5.159,0.108-7.647,0.321 c-1.49,2.086-2.909,4.27-4.219,6.495c-1.27,2.159-2.462,4.407-3.546,6.686c1.082,2.274,2.274,4.522,3.545,6.684 C29.437,48.901,30.854,51.084,32.349,53.179z M57.491,44.779c-0.706,1.346-1.438,2.666-2.185,3.934 c-0.753,1.282-1.554,2.568-2.386,3.836c2.374-0.366,4.645-0.835,6.771-1.4C59.101,49.1,58.362,46.963,57.491,44.779z M20.304,51.148c2.127,0.564,4.397,1.034,6.768,1.4c-0.837-1.276-1.638-2.563-2.386-3.835c-0.745-1.267-1.478-2.585-2.183-3.931 C21.636,46.956,20.898,49.091,20.304,51.148z M59.816,40c1.528,3.391,2.773,6.743,3.708,9.977C70.926,47.373,75.5,43.574,75.5,40 s-4.574-7.373-11.976-9.977C62.591,33.257,61.345,36.609,59.816,40z M16.472,30.025C9.073,32.628,4.5,36.427,4.5,40 c0,3.574,4.573,7.373,11.974,9.976c0.934-3.235,2.179-6.587,3.705-9.974C18.652,36.614,17.407,33.262,16.472,30.025z M20.303,28.852c0.594,2.054,1.332,4.19,2.2,6.368c0.704-1.342,1.436-2.661,2.184-3.932c0.752-1.279,1.553-2.565,2.388-3.836 C24.701,27.817,22.431,28.287,20.303,28.852z M52.922,27.451c0.837,1.277,1.638,2.563,2.386,3.837 c0.746,1.267,1.479,2.586,2.185,3.932c0.869-2.177,1.607-4.313,2.201-6.369C57.564,28.286,55.294,27.816,52.922,27.451z M24.471,8.497c-1.011,0-1.905,0.216-2.657,0.644c-1.312,0.744-2.252,2.149-2.795,4.175c-0.785,2.935-0.675,6.964,0.317,11.679 c3.36-0.892,7.002-1.555,10.834-1.971c2.217-2.971,4.545-5.688,6.927-8.088C32.337,10.779,27.866,8.497,24.471,8.497z M49.828,23.023c3.83,0.416,7.471,1.078,10.833,1.97c0.992-4.716,1.103-8.746,0.316-11.68c-0.542-2.022-1.48-3.424-2.79-4.166 c-0.754-0.427-1.649-0.644-2.661-0.644c-3.393,0-7.86,2.281-12.619,6.433C45.287,17.335,47.613,20.053,49.828,23.023z M40,22.5 c1.454,0,2.939,0.036,4.431,0.107c-1.45-1.774-2.936-3.43-4.429-4.938c-1.497,1.51-2.982,3.166-4.432,4.938 C37.061,22.536,38.546,22.5,40,22.5z"></path>
      <path fill="#4e7ab5" d="M24.471,4.997c4.494,0,9.996,2.91,15.532,7.867c5.535-4.953,11.034-7.86,15.524-7.86 c1.623,0,3.099,0.37,4.386,1.099c2.156,1.222,3.652,3.343,4.446,6.306c1.077,3.917,0.851,8.74-0.434,14.08 C73.147,29.57,79,34.431,79,40s-5.853,10.43-15.076,13.512c1.341,5.773,1.566,10.726,0.434,14.079 c-0.794,2.962-2.289,5.084-4.443,6.306C58.626,74.627,57.455,75,55.833,75c-0.001,0-0.416,0-0.417,0 c-4.492,0-9.882-2.91-15.416-7.861c-5.535,4.956-11.035,7.864-15.527,7.864c-1.623,0-3.099-0.37-4.386-1.099 c-2.158-1.225-3.655-3.349-4.448-6.314c-1.19-3.717-0.95-8.603,0.434-14.079C6.852,50.429,1,45.569,1,40 c0-5.568,5.852-10.429,15.072-13.511C15.385,23.43,14.946,20.59,14.931,18c-0.012-2.046,0.267-3.949,0.707-5.59 c0.794-2.966,2.29-5.09,4.448-6.314C21.372,5.366,22.848,4.997,24.471,4.997 M18.958,25.614c3.477-0.955,7.338-1.677,11.483-2.117 c2.382-3.21,4.875-6.096,7.386-8.584c-4.872-4.346-9.616-6.917-13.356-6.917c-1.099,0-2.075,0.238-2.904,0.709 c-1.433,0.813-2.452,2.32-3.031,4.481C17.678,16.388,17.873,20.716,18.958,25.614 M61.039,25.613 c1.085-4.898,1.28-9.227,0.422-12.429c-0.578-2.157-1.597-3.661-3.027-4.472c-0.83-0.471-1.809-0.709-2.907-0.709 c-3.737,0-8.478,2.568-13.349,6.91c2.51,2.488,5,5.374,7.38,8.583C53.701,23.936,57.562,24.658,61.039,25.613 M34.477,23.166 c1.802-0.107,3.609-0.2,5.488-0.2c1.879,0,3.755,0.094,5.557,0.2c-1.808-2.279-3.664-4.361-5.521-6.204 C38.144,18.805,36.287,20.887,34.477,23.166 M40,54c2.761,0,5.404-0.121,7.918-0.342c1.519-2.117,2.988-4.365,4.372-6.719 c1.353-2.299,2.577-4.626,3.67-6.939c-1.093-2.313-2.317-4.639-3.669-6.937c-1.385-2.355-2.853-4.602-4.373-6.719 C45.405,26.121,42.762,26,40,26s-5.406,0.121-7.92,0.343c-1.521,2.117-2.991,4.365-4.376,6.719 c-1.352,2.299-2.576,4.626-3.669,6.939c1.093,2.313,2.316,4.639,3.668,6.937c1.385,2.354,2.854,4.602,4.374,6.719 C34.592,53.879,37.237,54,40,54 M57.546,36.413c1.125-2.709,2.056-5.369,2.766-7.913c-2.553-0.702-5.373-1.282-8.428-1.707 c1.028,1.527,2.029,3.11,2.992,4.748C55.83,33.16,56.717,34.788,57.546,36.413 M22.449,36.414c0.828-1.625,1.716-3.253,2.668-4.873 c0.964-1.638,1.966-3.22,2.995-4.747c-3.055,0.424-5.875,1.005-8.428,1.707C20.394,31.045,21.325,33.704,22.449,36.414 M63.188,50.622C71.264,47.886,76,43.866,76,40s-4.736-7.886-12.812-10.622c-0.953,3.405-2.269,6.983-3.92,10.621 C60.919,43.638,62.235,47.216,63.188,50.622 M16.81,50.621c0.952-3.404,2.267-6.982,3.918-10.619 c-1.651-3.638-2.967-7.217-3.919-10.622C8.734,32.116,4,36.135,4,40C4,43.866,8.735,47.885,16.81,50.621 M51.884,53.207 c3.055-0.424,5.875-1.004,8.428-1.707c-0.711-2.544-1.642-5.204-2.766-7.914c-0.829,1.625-1.717,3.253-2.67,4.873 C53.913,50.097,52.912,51.68,51.884,53.207 M28.109,53.206c-1.028-1.527-2.029-3.109-2.993-4.746 c-0.952-1.619-1.839-3.246-2.667-4.87c-1.124,2.708-2.054,5.367-2.764,7.91C22.237,52.201,25.056,52.781,28.109,53.206 M24.474,72.003c3.739,0,8.481-2.57,13.352-6.914c-2.513-2.489-5.005-5.376-7.388-8.587c-4.143-0.439-8.002-1.161-11.478-2.116 c-1.084,4.898-1.279,9.226-0.422,12.428c0.578,2.16,1.598,3.667,3.03,4.48C22.396,71.765,23.375,72.003,24.474,72.003 M55.527,71.997L55.527,71.997c1.099,0,2.076-0.238,2.907-0.709c1.43-0.811,2.447-2.315,3.024-4.473 c0.858-3.203,0.663-7.531-0.421-12.428c-3.477,0.955-7.337,1.677-11.481,2.116c-2.38,3.21-4.871,6.096-7.381,8.585 C47.046,69.428,51.788,71.996,55.527,71.997 M40,63.04c1.857-1.844,3.713-3.927,5.522-6.206c-1.801,0.107-3.559,0.333-5.439,0.333 c-1.881,0-3.807-0.226-5.609-0.333C36.284,59.114,38.142,61.197,40,63.04 M24.116,4.072c-1.799,0-3.085,0.338-4.523,1.153 c-2.399,1.361-4.055,3.691-4.921,6.926c-0.96,3.587-0.877,8.302,0.236,13.681C5.419,29.189,0,34.325,0,40 c0,5.676,5.42,10.811,14.909,14.168c-1.113,5.379-1.196,10.094-0.235,13.681c0.865,3.233,2.52,5.563,4.921,6.926 c1.44,0.816,3.17,1.163,4.968,1.163c4.487,0,9.753-2.535,15.438-7.466c5.684,4.926,11.039,7.524,15.525,7.525 c1.799,0,3.441-0.413,4.881-1.229c2.397-1.359,4.051-3.686,4.916-6.917c0.961-3.588,0.878-8.303-0.235-13.681 C74.579,50.812,80,45.676,80,40s-5.42-10.812-14.911-14.169c1.114-5.38,1.196-10.095,0.235-13.682 c-0.866-3.231-2.521-5.558-4.919-6.917c-1.439-0.815-3.081-1.229-4.879-1.229c-4.485,0-9.839,2.599-15.524,7.527 c-5.686-4.932-11.066-7.461-15.554-7.461L24.116,4.072z M19.72,24.377c-0.462-2.324-0.772-4.502-0.789-6.412 c-0.015-1.72,0.221-3.217,0.57-4.521c0.507-1.892,1.368-3.194,2.559-3.87c0.676-0.384,1.5-0.644,2.423-0.644 c3.181,0,7.367,2.178,11.883,6.034c-2.221,2.273-4.392,4.819-6.466,7.585C26.315,22.949,22.897,23.562,19.72,24.377L19.72,24.377z M43.638,14.966c4.515-3.853,8.711-5.963,11.888-5.963c0.924,0,1.737,0.195,2.414,0.579c1.189,0.674,2.049,1.973,2.555,3.861 c0.874,2.818,0.761,6.564-0.218,10.933c-3.177-0.814-6.594-1.428-10.178-1.826C48.026,19.785,45.857,17.239,43.638,14.966 L43.638,14.966z M36.673,22.06c1.096-1.3,2.209-2.53,3.328-3.678c1.119,1.148,2.231,2.378,3.326,3.678 C42.208,22.02,41.095,22,40,22S37.793,22.02,36.673,22.06L36.673,22.06z M32.625,27.3c2.405-0.199,4.883-0.341,7.375-0.341 c2.491,0,4.969,0.142,7.373,0.341c1.432,2.019,2.796,4.126,4.056,6.269c1.222,2.078,2.373,4.239,3.423,6.43 c-1.051,2.192-2.202,4.354-3.424,6.432c-1.261,2.144-2.624,4.25-4.056,6.269c-2.403,0.199-4.881,0.466-7.372,0.466 c-2.493,0-4.972-0.268-7.378-0.467c-1.433-2.018-2.797-4.125-4.058-6.269c-1.222-2.077-2.372-4.238-3.422-6.43 c1.05-2.192,2.201-4.354,3.423-6.432C29.827,31.425,31.192,29.318,32.625,27.3L32.625,27.3z M57.422,34.024 c-0.549-1.018-1.112-2.018-1.683-2.99c-0.57-0.969-1.167-1.942-1.785-2.909c1.774,0.302,3.485,0.663,5.114,1.08 C58.601,30.771,58.05,32.383,57.422,34.024L57.422,34.024z M20.928,29.205c1.629-0.417,3.34-0.778,5.114-1.08 c-0.619,0.967-1.216,1.94-1.786,2.908c-0.571,0.972-1.134,1.972-1.683,2.99C21.945,32.384,21.395,30.772,20.928,29.205 L20.928,29.205z M60.365,39.999c1.415-3.162,2.587-6.292,3.49-9.326C70.758,33.192,75,36.721,75,40s-4.242,6.808-11.145,9.327 C62.951,46.292,61.78,43.161,60.365,39.999L60.365,39.999z M16.142,49.326C9.241,46.807,5,43.278,5,40s4.241-6.807,11.141-9.326 c0.903,3.035,2.074,6.165,3.489,9.327C18.216,43.162,17.045,46.292,16.142,49.326L16.142,49.326z M53.953,51.876 c0.618-0.968,1.216-1.941,1.785-2.909c0.572-0.972,1.135-1.973,1.684-2.991c0.628,1.641,1.178,3.254,1.646,4.821 C57.438,51.212,55.727,51.574,53.953,51.876L53.953,51.876z M20.929,50.795c0.467-1.566,1.017-3.177,1.644-4.816 c0.548,1.017,1.111,2.017,1.682,2.988c0.569,0.968,1.166,1.94,1.785,2.908C24.267,51.572,22.557,51.211,20.929,50.795 L20.929,50.795z M24.474,71.003c-0.924,0-1.736-0.195-2.413-0.579c-1.19-0.676-2.051-1.977-2.557-3.869 c-0.831-2.845-0.737-6.592,0.218-10.933c3.176,0.814,6.592,1.428,10.175,1.826c2.075,2.766,4.246,5.313,6.468,7.588 C31.85,68.893,27.653,71.004,24.474,71.003L24.474,71.003L24.474,71.003z M50.098,57.45c3.584-0.399,7.001-1.012,10.178-1.826 c1.105,4.74,1.192,8.518,0.217,10.932c-0.505,1.889-1.364,3.188-2.552,3.861c-0.678,0.384-1.49,0.579-2.413,0.579v1l-0.001-1 c-3.18,0-7.377-2.11-11.891-5.961C45.856,62.762,48.025,60.216,50.098,57.45L50.098,57.45z M40,61.62 c-1.12-1.148-2.234-2.379-3.33-3.68C37.79,57.98,38.904,58,40,58c1.095,0,2.208-0.02,3.327-0.06 C42.232,59.241,41.119,60.472,40,61.62L40,61.62z"></path>
    </g>
  </symbol>
  <symbol xmlns="http://www.w3.org/2000/svg" viewBox="0 0 48 48" id="photoshop">
    <path fill="#03A9F4" d="M6,10c0-2.209,1.791-4,4-4h28c2.209,0,4,1.791,4,4v28c0,2.209-1.791,4-4,4H10c-2.209,0-4-1.791-4-4V10z"></path>
    <path fill="#020F16" d="M20.016,19.174h-2.002v4.434h1.973c0.547,0,0.97-0.179,1.27-0.537s0.449-0.879,0.449-1.563c0-0.71-0.153-1.274-0.459-1.694S20.53,19.181,20.016,19.174z"></path>
    <path fill="#020F16" d="M9,9v30h30V9H9z M23.365,24.789C22.539,25.597,21.393,26,19.928,26h-1.914v5h-2.871V16.781h4.844c1.406,0,2.528,0.437,3.364,1.309s1.255,2.005,1.255,3.398S24.192,23.981,23.365,24.789z M32.682,30.336c-0.709,0.573-1.641,0.859-2.793,0.859c-0.775,0-1.459-0.151-2.051-0.454s-1.057-0.725-1.392-1.265s-0.503-1.123-0.503-1.748h2.627c0.014,0.481,0.125,0.843,0.337,1.084s0.558,0.361,1.04,0.361c0.742,0,1.113-0.335,1.113-1.006c0-0.234-0.112-0.451-0.337-0.649S30,27.052,29.225,26.713c-1.139-0.462-1.922-0.94-2.349-1.436s-0.64-1.11-0.64-1.846c0-0.925,0.334-1.688,1.001-2.29s1.552-0.903,2.651-0.903c1.158,0,2.086,0.3,2.783,0.898s1.045,1.403,1.045,2.412h-2.764c0-0.859-0.357-1.289-1.074-1.289c-0.293,0-0.533,0.091-0.723,0.273s-0.283,0.437-0.283,0.762c0,0.234,0.104,0.441,0.313,0.62s0.699,0.435,1.475,0.767c1.127,0.417,1.922,0.881,2.388,1.392s0.698,1.174,0.698,1.987C33.746,29.005,33.391,29.763,32.682,30.336z"></path>
  </symbol>
  <symbol xmlns="http://www.w3.org/2000/svg" viewBox="0 0 512 512" id="x-twitter">
    <path d="M389.2 48h70.6L305.6 224.2 487 464H345L233.7 318.6 106.5 464H35.8L200.7 275.5 26.8 48H172.4L272.9 180.9 389.2 48zM364.4 421.8h39.1L151.1 88h-42L364.4 421.8z"></path>
  </symbol>
  <symbol fill="none" xmlns="http://www.w3.org/2000/svg" viewBox="0 0 63 63" id="vitelogo 1">
    <g clip-path="url(#clip0_185_231)">
      <path d="M62.5515 9.3L33.0725 62.0136C32.4638 63.102 30.9001 63.1084 30.2823 62.0254L0.21881 9.3049C-0.454334 8.12482 0.554891 6.69518 1.89235 6.93444L31.4031 12.209C31.5914 12.2427 31.7841 12.2423 31.9723 12.2081L60.8657 6.94179C62.1988 6.69886 63.2127 8.11747 62.5515 9.3Z" fill="url(#paint0_linear_185_231)"></path>
      <path d="M45.4604 0.0154701L23.6452 4.29015C23.4709 4.3243 23.3129 4.41541 23.196 4.54915C23.0791 4.68289 23.01 4.85169 22.9995 5.029L21.6577 27.6933C21.6503 27.8176 21.672 27.9419 21.721 28.0564C21.7701 28.1708 21.8451 28.2723 21.9403 28.3526C22.0354 28.433 22.1479 28.4901 22.2689 28.5194C22.3899 28.5487 22.5161 28.5494 22.6375 28.5214L28.7112 27.1197C29.2794 26.9885 29.793 27.4891 29.6761 28.0605L27.8716 36.8969C27.7503 37.4916 28.3084 38.0001 28.8892 37.8236L32.6407 36.6839C33.2222 36.5074 33.7811 37.0173 33.6581 37.6125L30.7905 51.4924C30.611 52.3606 31.7659 52.834 32.2473 52.0897L32.5692 51.5926L50.3455 16.1165C50.6433 15.5225 50.1297 14.8452 49.4777 14.9712L43.2255 16.1778C42.6381 16.291 42.1383 15.7439 42.304 15.1693L46.3845 1.02372C46.5505 0.447645 46.0485 -0.0997439 45.4604 0.0154701Z" fill="url(#paint1_linear_185_231)"></path>
    </g>
    <defs>
      <linearGradient id="paint0_linear_185_231" x1="-51.9566" y1="434.852" x2="3127.34" y2="4752.61" gradientUnits="userSpaceOnUse">
        <stop stop-color="#41D1FF"></stop>
        <stop offset="1" stop-color="#BD34FE"></stop>
      </linearGradient>
      <linearGradient id="paint1_linear_185_231" x1="1269.84" y1="117.613" x2="1923.88" y2="4604.2" gradientUnits="userSpaceOnUse">
        <stop stop-color="#FFEA83"></stop>
        <stop offset="0.08333" stop-color="#FFDD35"></stop>
        <stop offset="1" stop-color="#FFA800"></stop>
      </linearGradient>
      <clipPath id="clip0_185_231">
        <rect width="62.7637" height="63" fill="white"></rect>
      </clipPath>
    </defs>
  </symbol>
  <symbol xmlns="http://www.w3.org/2000/svg" viewBox="0 -960 960 960" id="accessibility">
    <path d="M480-720q-33 0-56.5-23.5T400-800q0-33 23.5-56.5T480-880q33 0 56.5 23.5T560-800q0 33-23.5 56.5T480-720ZM360-80v-520q-60-5-122-15t-118-25l20-80q78 21 166 30.5t174 9.5q86 0 174-9.5T820-720l20 80q-56 15-118 25t-122 15v520h-80v-240h-80v240h-80Z"></path>
  </symbol>
  <symbol xmlns="http://www.w3.org/2000/svg" viewBox="0 0 48 48" id="adobe-xd">
    <path fill="#ff41c8" d="M6,10c0-2.209,1.791-4,4-4h28c2.209,0,4,1.791,4,4v28c0,2.209-1.791,4-4,4H10c-2.209,0-4-1.791-4-4 V10z"></path>
    <path fill="#16020b" d="M9,9v30h30V9H9z M19.093,21.695l1.914-4.883h3.291l-3.34,7.051l3.418,7.168h-3.33l-1.953-4.971 l-1.943,4.971h-3.33l3.418-7.168l-3.35-7.051h3.291L19.093,21.695z M25.069,25.426c0-1.732,0.293-3.024,0.879-3.877 s1.438-1.279,2.559-1.279c0.813,0,1.491,0.352,2.031,1.055v-5.293h2.783v15h-2.51l-0.127-1.074c-0.566,0.847-1.296,1.27-2.188,1.27 c-1.106,0-1.951-0.423-2.534-1.27s-0.881-2.09-0.894-3.73V25.426z M27.843,26.119c0,1.042,0.11,1.77,0.332,2.183 s0.596,0.62,1.123,0.62c0.547,0,0.96-0.244,1.24-0.732v-4.824c-0.273-0.521-0.684-0.781-1.23-0.781 c-0.508,0-0.879,0.205-1.113,0.615s-0.352,1.14-0.352,2.188V26.119z"></path>
  </symbol>
  <symbol xmlns="http://www.w3.org/2000/svg" viewBox="0 -960 960 960" id="api">
    <path d="M300-720q-25 0-42.5 17.5T240-660q0 25 17.5 42.5T300-600q25 0 42.5-17.5T360-660q0-25-17.5-42.5T300-720Zm0 400q-25 0-42.5 17.5T240-260q0 25 17.5 42.5T300-200q25 0 42.5-17.5T360-260q0-25-17.5-42.5T300-320ZM160-840h640q17 0 28.5 11.5T840-800v280q0 17-11.5 28.5T800-480H160q-17 0-28.5-11.5T120-520v-280q0-17 11.5-28.5T160-840Zm40 80v200h560v-200H200Zm-40 320h640q17 0 28.5 11.5T840-400v280q0 17-11.5 28.5T800-80H160q-17 0-28.5-11.5T120-120v-280q0-17 11.5-28.5T160-440Zm40 80v200h560v-200H200Zm0-400v200-200Zm0 400v200-200Z"></path>
  </symbol>
</svg>